<svg width="16" height="13" viewBox="0 0 16 13" fill="none" xmlns="http://www.w3.org/2000/svg">
<path d="M4.77649 9.21454L5.13004 9.56809L5.4836 9.21454L13.95 0.748172C14.1101 0.588024 14.3134 0.5 14.6009 0.5C14.8884 0.5 15.0917 0.588023 15.2518 0.748171L15.6004 0.399645L15.2518 0.748172C15.412 0.908321 15.5 1.11159 15.5 1.3991C15.5 1.68662 15.412 1.88988 15.2518 2.05003L15.6054 2.40359L15.2518 2.05003L5.78098 11.5209C5.58143 11.7204 5.37143 11.8049 5.13004 11.8049C4.88866 11.8049 4.67865 11.7204 4.47911 11.5209L0.748172 7.78994L0.400469 8.13765L0.748171 7.78994C0.588024 7.6298 0.5 7.42653 0.5 7.13901C0.5 6.8515 0.588023 6.64823 0.748172 6.48808C0.90832 6.32793 1.11159 6.23991 1.3991 6.23991C1.68662 6.23991 1.88989 6.32793 2.05003 6.48808L4.77649 9.21454Z" fill="#23856D" stroke="#23856D"/>
</svg>
