<svg width="16" height="13" viewBox="0 0 16 13" fill="none" xmlns="http://www.w3.org/2000/svg">
<path d="M4.77649 9.21456L5.13004 9.56811L5.4836 9.21456L13.95 0.748187C14.1101 0.588039 14.3134 0.500015 14.6009 0.500015C14.8884 0.500015 15.0917 0.588039 15.2518 0.748187L15.6004 0.39966L15.2518 0.748187C15.412 0.908337 15.5 1.11161 15.5 1.39912C15.5 1.68663 15.412 1.8899 15.2518 2.05005L15.6054 2.4036L15.2518 2.05005L5.78098 11.5209C5.58143 11.7204 5.37143 11.8049 5.13004 11.8049C4.88866 11.8049 4.67865 11.7204 4.47911 11.5209L0.748172 7.78996L0.400469 8.13766L0.748171 7.78996C0.588024 7.62981 0.5 7.42654 0.5 7.13903C0.5 6.85151 0.588023 6.64825 0.748172 6.4881C0.90832 6.32795 1.11159 6.23993 1.3991 6.23993C1.68662 6.23993 1.88989 6.32795 2.05003 6.4881L4.77649 9.21456Z" fill="white" stroke="white"/>
</svg>
