<svg width="30" height="30" viewBox="0 0 30 30" fill="none" xmlns="http://www.w3.org/2000/svg">
<path d="M26.6667 27.1667H27.1667V26.6667V3.33333V2.83333H26.6667H3.33333H2.83333V3.33333V26.6667V27.1667H3.33333H26.6667ZM3.33333 0.5H26.6667C27.4181 0.5 28.1388 0.798511 28.6701 1.32986C29.2015 1.86122 29.5 2.58189 29.5 3.33333V26.6667C29.5 27.4181 29.2015 28.1388 28.6701 28.6701C28.1388 29.2015 27.4181 29.5 26.6667 29.5H3.33333C2.58189 29.5 1.86122 29.2015 1.32986 28.6701C0.798511 28.1388 0.5 27.4181 0.5 26.6667V3.33333C0.5 2.58189 0.798511 1.86122 1.32986 1.32986C1.86122 0.798511 2.58189 0.5 3.33333 0.5ZM9.5 22.8333H7.16667V15.5H9.5V22.8333ZM16.1667 22.8333H13.8333V7.16667H16.1667V22.8333ZM22.8333 22.8333H20.5V12.1667H22.8333V22.8333Z" fill="#31A0FE" stroke="#31A0FE"/>
</svg>
