<svg width="34" height="28" viewBox="0 0 34 28" fill="none" xmlns="http://www.w3.org/2000/svg">
<path d="M30.598 4.42408L32.0764 3.50008H30.333H3.66634H1.92294L3.40134 4.42408L16.7347 12.7574L16.9997 12.923L17.2647 12.7574L30.598 4.42408ZM30.333 24.5001H30.833V24.0001V7.33341V6.43129L30.068 6.90942L16.9997 15.0771L3.93134 6.90942L3.16634 6.43129V7.33341V24.0001V24.5001H3.66634H30.333ZM30.333 1.16675C31.8902 1.16675 33.1663 2.44289 33.1663 4.00008V24.0001C33.1663 25.5573 31.8902 26.8334 30.333 26.8334H3.66634C2.10915 26.8334 0.833008 25.5573 0.833008 24.0001V4.00008C0.833008 2.44289 2.10915 1.16675 3.66634 1.16675H30.333Z" fill="#EC5C2E" stroke="#EC5C2E"/>
</svg>
