<svg width="15" height="14" viewBox="0 0 15 14" fill="none" xmlns="http://www.w3.org/2000/svg">
<path d="M13.5203 4.83195L9.64825 4.49595L8.13625 0.935951C7.86425 0.287951 6.93625 0.287951 6.66425 0.935951L5.15225 4.50395L1.28825 4.83195C0.584254 4.88795 0.296253 5.76795 0.832253 6.23195L3.76825 8.77595L2.88825 12.552C2.72825 13.24 3.47225 13.784 4.08025 13.416L7.40025 11.416L10.7203 13.424C11.3283 13.792 12.0723 13.248 11.9123 12.56L11.0323 8.77595L13.9683 6.23195C14.5043 5.76795 14.2243 4.88795 13.5203 4.83195ZM7.40025 9.91995L4.39225 11.736L5.19225 8.31195L2.53625 6.00795L6.04025 5.70395L7.40025 2.47995L8.76825 5.71195L12.2723 6.01595L9.61625 8.31995L10.4163 11.744L7.40025 9.91995Z" fill="#737373"/>
</svg>
